<svg xmlns="http://www.w3.org/2000/svg" width="1200" height="560" viewBox="0 0 1200 560">
  <defs>
    <linearGradient id="bg" x1="0" y1="0" x2="1" y2="1"><stop stop-color="#0a101a"/><stop offset="1" stop-color="#070b12"/></linearGradient>
    <linearGradient id="share" x1="0" y1="0" x2="1" y2="0"><stop stop-color="#7c5cff"/><stop offset=".45" stop-color="#5b9dff"/><stop offset="1" stop-color="#3ecfbf"/></linearGradient>
    <linearGradient id="areaA" x1="0" y1="0" x2="0" y2="1"><stop stop-color="#3ecfbf" stop-opacity=".28"/><stop offset="1" stop-color="#3ecfbf" stop-opacity="0"/></linearGradient>
    <filter id="shadow"><feDropShadow dx="0" dy="10" stdDeviation="14" flood-opacity=".4"/></filter>
    <style>
      text{font-family:Segoe UI,Arial,sans-serif;fill:#e8eef7}
      .muted{fill:#8fa0b8}.tiny{font-size:11px}.small{font-size:13px}.title{font-size:18px;font-weight:700}.strong{font-weight:700}.card{fill:#101826;stroke:#2a3a52}
    </style>
  </defs>
  <rect width="1200" height="560" rx="20" fill="url(#bg)"/>
  <text x="28" y="40" class="title">Models</text>
  <text x="28" y="60" class="tiny muted">Observability graphs   switch to Cards to pin and reorder</text>
  <g transform="translate(980 28)">
    <rect width="70" height="30" rx="15" fill="#12363a" stroke="#2f7a72"/><text x="35" y="20" text-anchor="middle" class="tiny" style="fill:#3ecfbf">Graph</text>
    <rect x="78" width="70" height="30" rx="15" fill="#152033" stroke="#2a3a52"/><text x="113" y="20" text-anchor="middle" class="tiny muted">Cards</text>
  </g>

  <g transform="translate(28 84)" filter="url(#shadow)">
    <rect width="740" height="440" rx="16" class="card"/>
    <rect x="20" y="20" width="340" height="78" rx="14" fill="#121c2c" stroke="#2a3a52"/>
    <text x="36" y="44" class="tiny muted">WINDOW SPEND</text>
    <text x="36" y="78" class="title">$141.20</text>
    <rect x="380" y="20" width="340" height="78" rx="14" fill="#121c2c" stroke="#2a3a52"/>
    <text x="396" y="44" class="tiny muted">TOP MODEL SHARE</text>
    <text x="396" y="78" class="title">59%</text>
    <text x="20" y="128" class="tiny muted">MODEL MIX OVER TIME</text>
    <path d="M40 360 L100 300 L160 320 L220 250 L280 270 L340 210 L400 230 L460 180 L520 200 L580 160 L640 190 L700 150" fill="none" stroke="#3ecfbf" stroke-width="3"/>
    <path d="M40 360 L100 300 L160 320 L220 250 L280 270 L340 210 L400 230 L460 180 L520 200 L580 160 L640 190 L700 150 L700 380 L40 380 Z" fill="url(#areaA)"/>
    <path d="M40 340 L100 310 L160 330 L220 290 L280 300 L340 260 L400 280 L460 240 L520 255 L580 220 L640 245 L700 230" fill="none" stroke="#5b9dff" stroke-width="2.4"/>
    <path d="M40 350 L100 335 L160 345 L220 320 L280 330 L340 300 L400 310 L460 285 L520 295 L580 270 L640 280 L700 265" fill="none" stroke="#b86adf" stroke-width="2"/>
    <g class="tiny muted">
      <text x="40" y="410">Aug 1</text><text x="220" y="410">Aug 5</text><text x="400" y="410">Aug 9</text><text x="580" y="410">Aug 12</text>
    </g>
    <g transform="translate(40 430)">
      <rect width="10" height="10" rx="2" fill="#3ecfbf"/><text x="16" y="10" class="tiny muted">Auto</text>
      <rect x="70" width="10" height="10" rx="2" fill="#5b9dff"/><text x="86" y="10" class="tiny muted">Grok</text>
      <rect x="140" width="10" height="10" rx="2" fill="#b86adf"/><text x="156" y="10" class="tiny muted">Composer</text>
    </g>
  </g>

  <g transform="translate(788 84)" filter="url(#shadow)">
    <rect width="384" height="440" rx="16" class="card"/>
    <text x="20" y="36" class="tiny muted">TEAM-STYLE SHARE</text>
    <text x="20" y="70" class="small strong">Auto</text><text x="350" y="70" text-anchor="end" class="small">59%</text>
    <rect x="20" y="80" width="344" height="14" rx="7" fill="#1a2433"/><rect x="20" y="80" width="203" height="14" rx="7" fill="url(#share)"/>
    <text x="20" y="114" class="tiny muted">$83.09</text>
    <text x="20" y="150" class="small strong">Grok 4.5 High Fast</text><text x="350" y="150" text-anchor="end" class="small">18%</text>
    <rect x="20" y="160" width="344" height="14" rx="7" fill="#1a2433"/><rect x="20" y="160" width="62" height="14" rx="7" fill="url(#share)"/>
    <text x="20" y="194" class="tiny muted">$26.03</text>
    <text x="20" y="230" class="small strong">Claude Fable 5</text><text x="350" y="230" text-anchor="end" class="small">8%</text>
    <rect x="20" y="240" width="344" height="14" rx="7" fill="#1a2433"/><rect x="20" y="240" width="28" height="14" rx="7" fill="url(#share)"/>
    <text x="20" y="274" class="tiny muted">$11.38</text>
    <text x="20" y="310" class="small strong">Composer 2.5 Fast</text><text x="350" y="310" text-anchor="end" class="small">8%</text>
    <rect x="20" y="320" width="344" height="14" rx="7" fill="#1a2433"/><rect x="20" y="320" width="27" height="14" rx="7" fill="url(#share)"/>
    <text x="20" y="354" class="tiny muted">$11.06</text>
    <rect x="20" y="380" width="160" height="40" rx="12" fill="#121c2c" stroke="#2a3a52"/>
    <text x="34" y="398" class="tiny muted">TOP MODEL</text><text x="34" y="416" class="small strong">Auto</text>
    <rect x="200" y="380" width="160" height="40" rx="12" fill="#121c2c" stroke="#2a3a52"/>
    <text x="214" y="398" class="tiny muted">TRACKED</text><text x="214" y="416" class="small strong">12</text>
  </g>
</svg>
